<svg xmlns="http://www.w3.org/2000/svg" width="1200" height="1260" viewBox="0 0 1200 1260">
<rect width="100%" height="100%" fill="white"/>
<style>text{font:14px Arial,sans-serif;fill:#243047}.title{font:bold 25px Arial}.panel{font:bold 17px Arial}.small{font:12px Arial}</style>
<text class="title" x="50" y="38">Operations vs n (log scale)</text>
<text class="panel" x="62" y="80">Random access</text>
<path d="M127 110V345H582" stroke="#475569" fill="none"/>
<path d="M127 345.0H582" stroke="#e2e8f0"/>
<text class="small" x="120" y="349.0" text-anchor="end">1e+04</text>
<path d="M127 286.2H582" stroke="#e2e8f0"/>
<text class="small" x="120" y="290.2" text-anchor="end">2e+05</text>
<path d="M127 227.5H582" stroke="#e2e8f0"/>
<text class="small" x="120" y="231.5" text-anchor="end">3e+06</text>
<path d="M127 168.8H582" stroke="#e2e8f0"/>
<text class="small" x="120" y="172.8" text-anchor="end">6e+07</text>
<path d="M127 110.0H582" stroke="#e2e8f0"/>
<text class="small" x="120" y="114.0" text-anchor="end">1e+09</text>
<text class="small" x="127.0" y="365" text-anchor="middle">100</text>
<text class="small" x="278.7" y="365" text-anchor="middle">1,000</text>
<text class="small" x="430.3" y="365" text-anchor="middle">10,000</text>
<text class="small" x="582.0" y="365" text-anchor="middle">100,000</text>
<path d="M127.0 345.0 L278.7 345.0 L430.3 345.0 L582.0 345.0" stroke="#2563eb" stroke-width="2.5" fill="none"/>
<circle cx="127.0" cy="345.0" r="3.5" fill="#2563eb"/>
<circle cx="278.7" cy="345.0" r="3.5" fill="#2563eb"/>
<circle cx="430.3" cy="345.0" r="3.5" fill="#2563eb"/>
<circle cx="582.0" cy="345.0" r="3.5" fill="#2563eb"/>
<path d="M127.0 279.0 L278.7 232.4 L430.3 185.2 L582.0 138.3" stroke="#dc2626" stroke-width="2.5" fill="none"/>
<circle cx="127.0" cy="279.0" r="3.5" fill="#dc2626"/>
<circle cx="278.7" cy="232.4" r="3.5" fill="#dc2626"/>
<circle cx="430.3" cy="185.2" r="3.5" fill="#dc2626"/>
<circle cx="582.0" cy="138.3" r="3.5" fill="#dc2626"/>
<rect x="72" y="378" width="12" height="12" fill="#2563eb"/>
<text class="small" x="90" y="388">DynamicArray</text>
<rect x="342" y="378" width="12" height="12" fill="#dc2626"/>
<text class="small" x="360" y="388">LinkedList</text>
<text class="small" x="582" y="365" text-anchor="end">n</text>
<text class="panel" x="647" y="80">Search</text>
<path d="M712 110V345H1167" stroke="#475569" fill="none"/>
<path d="M712 345.0H1167" stroke="#e2e8f0"/>
<text class="small" x="705" y="349.0" text-anchor="end">1e+04</text>
<path d="M712 286.2H1167" stroke="#e2e8f0"/>
<text class="small" x="705" y="290.2" text-anchor="end">1e+05</text>
<path d="M712 227.5H1167" stroke="#e2e8f0"/>
<text class="small" x="705" y="231.5" text-anchor="end">1e+06</text>
<path d="M712 168.8H1167" stroke="#e2e8f0"/>
<text class="small" x="705" y="172.8" text-anchor="end">1e+07</text>
<path d="M712 110.0H1167" stroke="#e2e8f0"/>
<text class="small" x="705" y="114.0" text-anchor="end">1e+08</text>
<text class="small" x="712.0" y="365" text-anchor="middle">100</text>
<text class="small" x="863.7" y="365" text-anchor="middle">1,000</text>
<text class="small" x="1015.3" y="365" text-anchor="middle">10,000</text>
<text class="small" x="1167.0" y="365" text-anchor="middle">100,000</text>
<path d="M712.0 293.9 L863.7 236.1 L1015.3 177.4 L1167.0 118.8" stroke="#2563eb" stroke-width="2.5" fill="none"/>
<circle cx="712.0" cy="293.9" r="3.5" fill="#2563eb"/>
<circle cx="863.7" cy="236.1" r="3.5" fill="#2563eb"/>
<circle cx="1015.3" cy="177.4" r="3.5" fill="#2563eb"/>
<circle cx="1167.0" cy="118.8" r="3.5" fill="#2563eb"/>
<path d="M712.0 293.9 L863.7 236.1 L1015.3 177.4 L1167.0 118.8" stroke="#dc2626" stroke-width="2.5" fill="none"/>
<circle cx="712.0" cy="293.9" r="3.5" fill="#dc2626"/>
<circle cx="863.7" cy="236.1" r="3.5" fill="#dc2626"/>
<circle cx="1015.3" cy="177.4" r="3.5" fill="#dc2626"/>
<circle cx="1167.0" cy="118.8" r="3.5" fill="#dc2626"/>
<rect x="657" y="378" width="12" height="12" fill="#2563eb"/>
<text class="small" x="675" y="388">DynamicArray</text>
<rect x="927" y="378" width="12" height="12" fill="#dc2626"/>
<text class="small" x="945" y="388">LinkedList</text>
<text class="small" x="1167" y="365" text-anchor="end">n</text>
<text class="panel" x="62" y="470">Front insert/remove</text>
<path d="M127 500V735H582" stroke="#475569" fill="none"/>
<path d="M127 735.0H582" stroke="#e2e8f0"/>
<text class="small" x="120" y="739.0" text-anchor="end">1e+03</text>
<path d="M127 676.2H582" stroke="#e2e8f0"/>
<text class="small" x="120" y="680.2" text-anchor="end">3e+04</text>
<path d="M127 617.5H582" stroke="#e2e8f0"/>
<text class="small" x="120" y="621.5" text-anchor="end">1e+06</text>
<path d="M127 558.8H582" stroke="#e2e8f0"/>
<text class="small" x="120" y="562.8" text-anchor="end">3e+07</text>
<path d="M127 500.0H582" stroke="#e2e8f0"/>
<text class="small" x="120" y="504.0" text-anchor="end">1e+09</text>
<text class="small" x="127.0" y="755" text-anchor="middle">100</text>
<text class="small" x="278.7" y="755" text-anchor="middle">1,000</text>
<text class="small" x="430.3" y="755" text-anchor="middle">10,000</text>
<text class="small" x="582.0" y="755" text-anchor="middle">100,000</text>
<path d="M127.0 626.1 L278.7 610.6 L430.3 577.5 L582.0 539.1" stroke="#2563eb" stroke-width="2.5" fill="none"/>
<circle cx="127.0" cy="626.1" r="3.5" fill="#2563eb"/>
<circle cx="278.7" cy="610.6" r="3.5" fill="#2563eb"/>
<circle cx="430.3" cy="577.5" r="3.5" fill="#2563eb"/>
<circle cx="582.0" cy="539.1" r="3.5" fill="#2563eb"/>
<path d="M127.0 668.6 L278.7 629.3 L430.3 579.2 L582.0 539.3" stroke="#dc2626" stroke-width="2.5" fill="none"/>
<circle cx="127.0" cy="668.6" r="3.5" fill="#dc2626"/>
<circle cx="278.7" cy="629.3" r="3.5" fill="#dc2626"/>
<circle cx="430.3" cy="579.2" r="3.5" fill="#dc2626"/>
<circle cx="582.0" cy="539.3" r="3.5" fill="#dc2626"/>
<path d="M127.0 735.0 L278.7 735.0 L430.3 735.0 L582.0 735.0" stroke="#16a34a" stroke-width="2.5" fill="none"/>
<circle cx="127.0" cy="735.0" r="3.5" fill="#16a34a"/>
<circle cx="278.7" cy="735.0" r="3.5" fill="#16a34a"/>
<circle cx="430.3" cy="735.0" r="3.5" fill="#16a34a"/>
<circle cx="582.0" cy="735.0" r="3.5" fill="#16a34a"/>
<path d="M127.0 735.0 L278.7 735.0 L430.3 735.0 L582.0 735.0" stroke="#9333ea" stroke-width="2.5" fill="none"/>
<circle cx="127.0" cy="735.0" r="3.5" fill="#9333ea"/>
<circle cx="278.7" cy="735.0" r="3.5" fill="#9333ea"/>
<circle cx="430.3" cy="735.0" r="3.5" fill="#9333ea"/>
<circle cx="582.0" cy="735.0" r="3.5" fill="#9333ea"/>
<rect x="72" y="768" width="12" height="12" fill="#2563eb"/>
<text class="small" x="90" y="778">DynamicArray insert</text>
<rect x="342" y="768" width="12" height="12" fill="#dc2626"/>
<text class="small" x="360" y="778">DynamicArray remove</text>
<rect x="72" y="787" width="12" height="12" fill="#16a34a"/>
<text class="small" x="90" y="797">LinkedList insert</text>
<rect x="342" y="787" width="12" height="12" fill="#9333ea"/>
<text class="small" x="360" y="797">LinkedList remove</text>
<text class="small" x="582" y="755" text-anchor="end">n</text>
<text class="panel" x="647" y="470">Middle insert/remove</text>
<path d="M712 500V735H1167" stroke="#475569" fill="none"/>
<path d="M712 735.0H1167" stroke="#e2e8f0"/>
<text class="small" x="705" y="739.0" text-anchor="end">1e+04</text>
<path d="M712 676.2H1167" stroke="#e2e8f0"/>
<text class="small" x="705" y="680.2" text-anchor="end">1e+05</text>
<path d="M712 617.5H1167" stroke="#e2e8f0"/>
<text class="small" x="705" y="621.5" text-anchor="end">1e+06</text>
<path d="M712 558.8H1167" stroke="#e2e8f0"/>
<text class="small" x="705" y="562.8" text-anchor="end">1e+07</text>
<path d="M712 500.0H1167" stroke="#e2e8f0"/>
<text class="small" x="705" y="504.0" text-anchor="end">1e+08</text>
<text class="small" x="712.0" y="755" text-anchor="middle">100</text>
<text class="small" x="863.7" y="755" text-anchor="middle">1,000</text>
<text class="small" x="1015.3" y="755" text-anchor="middle">10,000</text>
<text class="small" x="1167.0" y="755" text-anchor="middle">100,000</text>
<path d="M712.0 632.7 L863.7 617.5 L1015.3 574.0 L1167.0 517.4" stroke="#2563eb" stroke-width="2.5" fill="none"/>
<circle cx="712.0" cy="632.7" r="3.5" fill="#2563eb"/>
<circle cx="863.7" cy="617.5" r="3.5" fill="#2563eb"/>
<circle cx="1015.3" cy="574.0" r="3.5" fill="#2563eb"/>
<circle cx="1167.0" cy="517.4" r="3.5" fill="#2563eb"/>
<path d="M712.0 712.1 L863.7 652.9 L1015.3 579.1 L1167.0 517.9" stroke="#dc2626" stroke-width="2.5" fill="none"/>
<circle cx="712.0" cy="712.1" r="3.5" fill="#dc2626"/>
<circle cx="863.7" cy="652.9" r="3.5" fill="#dc2626"/>
<circle cx="1015.3" cy="579.1" r="3.5" fill="#dc2626"/>
<circle cx="1167.0" cy="517.9" r="3.5" fill="#dc2626"/>
<path d="M712.0 693.4 L863.7 635.1 L1015.3 576.4 L1167.0 517.7" stroke="#16a34a" stroke-width="2.5" fill="none"/>
<circle cx="712.0" cy="693.4" r="3.5" fill="#16a34a"/>
<circle cx="863.7" cy="635.1" r="3.5" fill="#16a34a"/>
<circle cx="1015.3" cy="576.4" r="3.5" fill="#16a34a"/>
<circle cx="1167.0" cy="517.7" r="3.5" fill="#16a34a"/>
<path d="M712.0 711.1 L863.7 652.8 L1015.3 579.1 L1167.0 517.9" stroke="#9333ea" stroke-width="2.5" fill="none"/>
<circle cx="712.0" cy="711.1" r="3.5" fill="#9333ea"/>
<circle cx="863.7" cy="652.8" r="3.5" fill="#9333ea"/>
<circle cx="1015.3" cy="579.1" r="3.5" fill="#9333ea"/>
<circle cx="1167.0" cy="517.9" r="3.5" fill="#9333ea"/>
<rect x="657" y="768" width="12" height="12" fill="#2563eb"/>
<text class="small" x="675" y="778">DynamicArray insert</text>
<rect x="927" y="768" width="12" height="12" fill="#dc2626"/>
<text class="small" x="945" y="778">DynamicArray remove</text>
<rect x="657" y="787" width="12" height="12" fill="#16a34a"/>
<text class="small" x="675" y="797">LinkedList insert</text>
<rect x="927" y="787" width="12" height="12" fill="#9333ea"/>
<text class="small" x="945" y="797">LinkedList remove</text>
<text class="small" x="1167" y="755" text-anchor="end">n</text>
<text class="panel" x="62" y="860">Heap priority</text>
<path d="M127 890V1125H582" stroke="#475569" fill="none"/>
<path d="M127 1125.0H582" stroke="#e2e8f0"/>
<text class="small" x="120" y="1129.0" text-anchor="end">1e+02</text>
<path d="M127 1066.2H582" stroke="#e2e8f0"/>
<text class="small" x="120" y="1070.2" text-anchor="end">2e+03</text>
<path d="M127 1007.5H582" stroke="#e2e8f0"/>
<text class="small" x="120" y="1011.5" text-anchor="end">3e+04</text>
<path d="M127 948.8H582" stroke="#e2e8f0"/>
<text class="small" x="120" y="952.8" text-anchor="end">6e+05</text>
<path d="M127 890.0H582" stroke="#e2e8f0"/>
<text class="small" x="120" y="894.0" text-anchor="end">1e+07</text>
<text class="small" x="127.0" y="1145" text-anchor="middle">100</text>
<text class="small" x="278.7" y="1145" text-anchor="middle">1,000</text>
<text class="small" x="430.3" y="1145" text-anchor="middle">10,000</text>
<text class="small" x="582.0" y="1145" text-anchor="middle">100,000</text>
<path d="M127.0 1081.1 L278.7 1022.7 L430.3 968.2 L582.0 915.8" stroke="#2563eb" stroke-width="2.5" fill="none"/>
<circle cx="127.0" cy="1081.1" r="3.5" fill="#2563eb"/>
<circle cx="278.7" cy="1022.7" r="3.5" fill="#2563eb"/>
<circle cx="430.3" cy="968.2" r="3.5" fill="#2563eb"/>
<circle cx="582.0" cy="915.8" r="3.5" fill="#2563eb"/>
<path d="M127.0 1110.5 L278.7 1061.9 L430.3 1014.4 L582.0 967.1" stroke="#dc2626" stroke-width="2.5" fill="none"/>
<circle cx="127.0" cy="1110.5" r="3.5" fill="#dc2626"/>
<circle cx="278.7" cy="1061.9" r="3.5" fill="#dc2626"/>
<circle cx="430.3" cy="1014.4" r="3.5" fill="#dc2626"/>
<circle cx="582.0" cy="967.1" r="3.5" fill="#dc2626"/>
<rect x="72" y="1158" width="12" height="12" fill="#2563eb"/>
<text class="small" x="90" y="1168">MinHeap heap_extract</text>
<rect x="342" y="1158" width="12" height="12" fill="#dc2626"/>
<text class="small" x="360" y="1168">MinHeap heap_insert</text>
<text class="small" x="582" y="1145" text-anchor="end">n</text>
</svg>